<svg width="200" height="33" viewBox="0 0 200 33" fill="none" xmlns="http://www.w3.org/2000/svg">
<path d="M57.2099 9.77414V23.2603H53.8182V15.1724L50.7042 23.2603H47.967L44.8331 15.1532V23.2603H41.4414V9.77414H45.448L49.3554 19.1107L53.2232 9.77414H57.2099Z" fill="#3F0071"/>
<path d="M67.0274 23.3948C65.7183 23.3948 64.5151 23.1002 63.4175 22.5111C62.3332 21.9219 61.4671 21.1023 60.8192 20.052C60.1845 18.989 59.8671 17.798 59.8671 16.4788C59.8671 15.1596 60.1845 13.975 60.8192 12.9248C61.4671 11.8745 62.3332 11.0549 63.4175 10.4657C64.5151 9.8766 65.7183 9.58203 67.0274 9.58203C68.3365 9.58203 69.5332 9.8766 70.6175 10.4657C71.715 11.0549 72.5745 11.8745 73.196 12.9248C73.8307 13.975 74.1481 15.1596 74.1481 16.4788C74.1481 17.798 73.8307 18.989 73.196 20.052C72.5613 21.1023 71.7018 21.9219 70.6175 22.5111C69.5332 23.1002 68.3365 23.3948 67.0274 23.3948ZM67.0274 20.3978C68.1382 20.3978 69.0241 20.0392 69.6853 19.322C70.3596 18.6048 70.6968 17.6571 70.6968 16.4788C70.6968 15.2877 70.3596 14.34 69.6853 13.6356C69.0241 12.9183 68.1382 12.5597 67.0274 12.5597C65.9035 12.5597 65.0043 12.9119 64.3299 13.6163C63.6688 14.3208 63.3382 15.2749 63.3382 16.4788C63.3382 17.6699 63.6688 18.624 64.3299 19.3412C65.0043 20.0456 65.9035 20.3978 67.0274 20.3978Z" fill="#3F0071"/>
<path d="M83.9292 23.2603L81.0333 18.1694H80.2201V23.2603H76.8284V9.77414H82.5209C83.6184 9.77414 84.5506 9.95985 85.3176 10.3313C86.0977 10.7027 86.6796 11.215 87.063 11.8681C87.4465 12.5085 87.6382 13.2257 87.6382 14.0198C87.6382 14.9163 87.3738 15.7168 86.8448 16.4212C86.3291 17.1256 85.5622 17.6251 84.544 17.9196L87.7572 23.2603H83.9292ZM80.2201 15.8448H82.3226C82.944 15.8448 83.4068 15.6975 83.711 15.403C84.0283 15.1084 84.187 14.6922 84.187 14.1543C84.187 13.642 84.0283 13.2385 83.711 12.944C83.4068 12.6494 82.944 12.5021 82.3226 12.5021H80.2201V15.8448Z" fill="#3F0071"/>
<path d="M103.017 23.2603H99.6251L93.9524 14.9419V23.2603H90.5607V9.77414H93.9524L99.6251 18.1309V9.77414H103.017V23.2603Z" fill="#3F0071"/>
<path d="M109.661 9.77414V23.2603H106.269V9.77414H109.661Z" fill="#3F0071"/>
<path d="M125.368 23.2603H121.976L116.304 14.9419V23.2603H112.912V9.77414H116.304L121.976 18.1309V9.77414H125.368V23.2603Z" fill="#3F0071"/>
<path d="M137.863 14.039C137.612 13.5907 137.248 13.2513 136.772 13.0208C136.309 12.7775 135.76 12.6558 135.126 12.6558C134.028 12.6558 133.149 13.008 132.488 13.7124C131.827 14.404 131.496 15.3325 131.496 16.498C131.496 17.7403 131.84 18.7137 132.527 19.4181C133.228 20.1097 134.187 20.4555 135.403 20.4555C136.236 20.4555 136.937 20.2506 137.506 19.8407C138.088 19.4309 138.511 18.8418 138.775 18.0733H134.471V15.6527H141.85V18.7073C141.598 19.5269 141.169 20.289 140.56 20.9934C139.965 21.6978 139.205 22.2677 138.279 22.7032C137.354 23.1386 136.309 23.3563 135.146 23.3563C133.77 23.3563 132.541 23.0682 131.456 22.4919C130.385 21.9027 129.546 21.0894 128.937 20.052C128.342 19.0147 128.045 17.83 128.045 16.498C128.045 15.166 128.342 13.9814 128.937 12.944C129.546 11.8938 130.385 11.0805 131.456 10.5042C132.527 9.91502 133.75 9.62045 135.126 9.62045C136.792 9.62045 138.193 10.0111 139.331 10.7923C140.481 11.5736 141.241 12.6558 141.612 14.039H137.863Z" fill="#3F0071"/>
<path d="M160.29 9.77414V23.2603H156.899V15.1724L153.784 23.2603H151.047L147.913 15.1532V23.2603H144.522V9.77414H148.528L152.436 19.1107L156.303 9.77414H160.29Z" fill="#3F0071"/>
<path d="M172.19 20.8781H166.994L166.161 23.2603H162.61L167.648 9.77414H171.576L176.614 23.2603H173.023L172.19 20.8781ZM171.318 18.3423L169.592 13.405L167.886 18.3423H171.318Z" fill="#3F0071"/>
<path d="M188.957 9.77414V12.4061H185.267V23.2603H181.876V12.4061H178.186V9.77414H188.957Z" fill="#3F0071"/>
<path d="M194.844 12.4061V15.134H199.386V17.6699H194.844V20.6284H199.981V23.2603H191.452V9.77414H199.981V12.4061H194.844Z" fill="#3F0071"/>
<rect x="0.015625" y="0.518555" width="32.7927" height="31.9391" rx="11.1829" fill="#3F0071"/>
<rect x="0.015625" y="0.518555" width="32.7927" height="31.9391" rx="11.1829" fill="url(#paint0_linear_247_27717)"/>
<g filter="url(#filter0_d_247_27717)">
<path opacity="0.6" d="M21.5445 17.1885L13.0202 12.3413C11.9612 11.7393 10.5948 12.1003 9.98352 13.1422C9.37224 14.1852 9.73877 15.5309 10.7966 16.1329L19.3209 20.9801C20.38 21.5821 21.7464 21.2211 22.3576 20.1792C22.9701 19.1362 22.6035 17.7905 21.5445 17.1885Z" fill="white" stroke="white" stroke-width="0.798781"/>
<path opacity="0.6" d="M21.5914 11.295L13.0671 16.1421C12.0081 16.7442 10.6417 16.3832 10.0304 15.3413C9.41911 14.2983 9.78565 12.9526 10.8435 12.3506L19.3678 7.50345C20.4268 6.90142 21.7932 7.26241 22.4045 8.30426C23.0158 9.34726 22.6504 10.693 21.5914 11.295Z" fill="white" stroke="white" stroke-width="0.798781"/>
<path opacity="0.6" d="M21.5914 20.9962L13.0671 25.8433C12.0081 26.4454 10.6417 26.0844 10.0304 25.0425C9.41911 23.9995 9.78565 22.6538 10.8435 22.0518L19.3678 17.2046C20.4268 16.6026 21.7932 16.9636 22.4045 18.0054C23.0158 19.0496 22.6504 20.3942 21.5914 20.9962Z" fill="white" stroke="white" stroke-width="0.798781"/>
<path d="M21.5949 11.2815C22.6807 10.6641 23.0441 9.32082 22.4066 8.28123C21.7691 7.24164 20.3721 6.8994 19.2863 7.51682C18.2005 8.13425 17.8371 9.47752 18.4746 10.5171C19.1121 11.5567 20.5091 11.8989 21.5949 11.2815Z" fill="white" stroke="white" stroke-width="0.798781"/>
<path d="M20.449 21.2985C21.6764 21.2985 22.6714 20.3185 22.6714 19.1097C22.6714 17.9009 21.6764 16.9209 20.449 16.9209C19.2216 16.9209 18.2266 17.9009 18.2266 19.1097C18.2266 20.3185 19.2216 21.2985 20.449 21.2985Z" fill="white" stroke="white" stroke-width="0.798781"/>
<path d="M14.101 24.4541C14.3852 23.278 13.6476 22.0981 12.4534 21.8186C11.2592 21.5391 10.0607 22.2659 9.77641 23.4419C9.49215 24.6179 10.2298 25.7979 11.424 26.0774C12.6182 26.3569 13.8167 25.6301 14.101 24.4541Z" fill="white" stroke="white" stroke-width="0.798781"/>
<path d="M11.9568 16.4342C13.1842 16.4342 14.1792 15.4543 14.1792 14.2454C14.1792 13.0366 13.1842 12.0566 11.9568 12.0566C10.7294 12.0566 9.73438 13.0366 9.73438 14.2454C9.73438 15.4543 10.7294 16.4342 11.9568 16.4342Z" fill="white" stroke="white" stroke-width="0.798781"/>
</g>
<defs>
<filter id="filter0_d_247_27717" x="8.49028" y="6.01372" width="15.4335" height="21.3212" filterUnits="userSpaceOnUse" color-interpolation-filters="sRGB">
<feFlood flood-opacity="0" result="BackgroundImageFix"/>
<feColorMatrix in="SourceAlpha" type="matrix" values="0 0 0 0 0 0 0 0 0 0 0 0 0 0 0 0 0 0 127 0" result="hardAlpha"/>
<feOffset/>
<feGaussianBlur stdDeviation="0.39939"/>
<feComposite in2="hardAlpha" operator="out"/>
<feColorMatrix type="matrix" values="0 0 0 0 0 0 0 0 0 0 0 0 0 0 0 0 0 0 0.26 0"/>
<feBlend mode="normal" in2="BackgroundImageFix" result="effect1_dropShadow_247_27717"/>
<feBlend mode="normal" in="SourceGraphic" in2="effect1_dropShadow_247_27717" result="shape"/>
</filter>
<linearGradient id="paint0_linear_247_27717" x1="16.412" y1="0.518555" x2="16.412" y2="32.4566" gradientUnits="userSpaceOnUse">
<stop stop-color="#FF9900"/>
<stop offset="0.447917" stop-color="#E200BB"/>
<stop offset="1" stop-color="#9721F3"/>
</linearGradient>
</defs>
</svg>
