<svg width="134" height="33" viewBox="0 0 134 33" fill="none" xmlns="http://www.w3.org/2000/svg">
<g clip-path="url(#clip0_5773_226973)">
<path d="M9.10664 31.5448L0 0H7.34927L12.6183 21.9182H12.8822L18.6945 0H24.9881L30.785 21.9644H31.0644L36.3334 0H43.6827L34.576 31.5448H28.0185L21.9578 10.9191H21.7094L15.6642 31.5448H9.10664Z" fill="#00000C"/>
<path d="M62.0469 5.49956V0H88.1838V5.49956H78.4407V31.5448H71.79V5.49956H62.0469Z" fill="#00000C"/>
<path d="M59.9887 20.4812C60.0105 21.1768 59.8707 21.9031 59.5603 22.6417C59.2094 23.4818 58.4798 24.2881 57.3993 25.0421C56.148 25.91 54.847 26.3162 53.5275 26.2455C52.4004 26.1901 51.3602 25.7808 50.4164 25.0822C50.7517 24.8483 65.1242 14.9201 65.1242 14.9201L64.6057 14.1815C63.6277 12.495 62.5068 11.1563 61.2866 10.2146C59.9453 9.18667 58.5325 8.45422 57.0857 8.03567C55.1668 7.4971 53.248 7.41709 51.382 7.80178C49.5346 8.18032 47.9231 8.83583 46.6036 9.75294C43.8495 11.6702 42.1511 14.3323 41.5612 17.6622C40.9651 20.9952 41.6419 24.0666 43.5701 26.7963C45.5075 29.5446 48.1964 31.2311 51.559 31.8158C54.9216 32.3913 58.0202 31.7142 60.7712 29.8C63.0688 28.2059 64.6181 26.2116 65.3757 23.8727C65.7266 22.7709 65.9253 21.6261 65.9687 20.4689L65.975 20.3304L59.9887 20.3427L59.9949 20.4812H59.9887ZM47.2183 19.5303C47.2183 18.8347 47.3301 18.1485 47.5536 17.4899C47.9262 16.3573 48.6745 15.4156 49.8388 14.6031C50.8014 13.9384 51.8943 13.5506 53.099 13.4552C54.1081 13.3721 55.1047 13.6399 56.0766 14.2031C55.7195 14.4493 47.6406 20.0288 47.2742 20.2812C47.2432 20.0319 47.2183 19.7796 47.2183 19.5303Z" fill="#00000C"/>
<path d="M102.774 9.36416C100.921 8.25009 98.7474 7.59766 96.4219 7.59766C89.6253 7.59766 84.1172 13.0572 84.1172 19.7909C84.1172 26.5245 89.6222 31.981 96.4219 31.981C98.7474 31.981 100.921 31.3255 102.774 30.2145V31.3132H108.966V7.60073H102.774V9.36109V9.36416ZM96.397 26.4045C92.7208 26.4045 89.7432 23.4562 89.7432 19.8124C89.7432 16.1686 92.7208 13.2234 96.397 13.2234C100.073 13.2234 103.041 16.1748 103.041 19.8124C103.041 23.4501 100.067 26.4045 96.397 26.4045Z" fill="#00000C"/>
<path d="M117.546 7.6543L121.93 15.9267L126.42 7.6543H133.21L126.296 19.4844L133.397 31.3144H126.637L121.93 23.1343L117.298 31.3144H110.461L117.546 19.4844L110.709 7.6543H117.546Z" fill="#00000C"/>
</g>
<defs>
<clipPath id="clip0_5773_226973">
<rect width="133.398" height="32.0156" fill="white"/>
</clipPath>
</defs>
</svg>
